Coordinates
version=1
nRows=9
nColumns=26
inDegrees=yes

Units are S.I. units (second, meters, Newtons, ...)
If the header above contains a line with 'inDegrees', this indicates whether rotational values are in degrees (yes) or radians (no).

endheader
time	pelvis_tilt	pelvis_list	pelvis_rotation	pelvis_tx	pelvis_ty	pelvis_tz	hip_flexion_r	hip_adduction_r	hip_rotation_r	knee_angle_r	knee_angle_r_beta	hip_flexion_l	hip_adduction_l	hip_rotation_l	knee_angle_l	knee_angle_l_beta	lumbar_extension	lumbar_bending	lumbar_rotation	ankle_angle_r	subtalar_angle_r	mtp_angle_r	ankle_angle_l	subtalar_angle_l	mtp_angle_l
      1.82666667	    -11.45457944	      9.01117819	      0.94387256	     -0.17685586	      0.80726318	      0.38015258	     29.88154021	     -9.38659650	      4.22673471	     67.34838359	      1.17545104	     23.49422437	     10.59751614	     -2.81192169	     26.91513475	      0.46975772	     -4.42560700	    -12.75950729	     -2.42174704	     -1.33255654	    -16.08474629	      0.00000000	      9.32750804	    -12.37726393	      0.00000000
      1.83333333	    -11.20317156	      9.16068604	      1.13429480	     -0.16893166	      0.80875476	      0.38043518	     30.73992942	     -9.56962976	      4.28518511	     67.20437458	      1.17293761	     22.16104536	     10.94296505	     -2.25415457	     26.10078802	      0.45554469	     -4.85379377	    -13.04449099	     -3.17900856	     -0.50564960	    -16.14789585	      0.00000000	      9.13420070	    -12.72218723	      0.00000000
      1.84000000	    -11.13448974	      9.01699324	      1.26991919	     -0.16164507	      0.80972970	      0.38096866	     31.91587395	     -9.37097908	      4.32851525	     67.09875914	      1.17109427	     21.36278137	     10.83780571	     -2.05978501	     25.89910822	      0.45202471	     -5.14839167	    -12.99847222	     -3.37005363	     -0.32090982	    -16.26393541	      0.00000000	      9.16476826	    -12.73106708	      0.00000000
      1.84666667	    -11.02418428	      9.02699763	      1.53713900	     -0.15365440	      0.81091765	      0.38125807	     32.81950175	     -9.42112092	      4.31085025	     66.73137704	      1.16468224	     20.24848814	     11.01405781	     -1.48103499	     25.25447851	      0.44077380	     -5.34468932	    -13.11857131	     -4.01867041	      0.36847415	    -16.63918877	      0.00000000	      9.17531127	    -12.82386739	      0.00000000
      1.85333333	    -10.66882364	      9.06507407	      1.80022067	     -0.14614068	      0.81223585	      0.38152695	     33.52402622	     -9.55683446	      4.26032552	     66.33507800	      1.15776552	     18.97323636	     11.19250738	     -0.95639461	     24.72454334	      0.43152469	     -6.01063076	    -13.25212242	     -4.64999383	      0.88271965	    -16.72620489	      0.00000000	      8.96596110	    -13.04729756	      0.00000000
      1.86000000	    -10.61792077	      8.96258303	      1.96069742	     -0.13849211	      0.81311629	      0.38207488	     34.50594353	     -9.41942341	      4.32540875	     65.78410715	      1.14814927	     18.11648805	     11.11760610	     -0.70829631	     24.40207585	      0.42589657	     -6.16899534	    -13.25708922	     -4.98934425	      1.13901420	    -16.85961639	      0.00000000	      8.97519560	    -13.08413659	      0.00000000
      1.86666667	    -10.46250333	      8.93902529	      2.25980486	     -0.13083782	      0.81409863	      0.38242691	     35.28728475	     -9.48852311	      4.26501390	     65.09475181	      1.13611774	     17.11839842	     11.18936332	     -0.25219185	     24.01952742	      0.41921984	     -6.51550873	    -13.35673981	     -5.52241435	      1.54411582	    -17.03983268	      0.00000000	      8.89993943	    -13.10758873	      0.00000000
      1.87333333	    -10.05294068	      8.95814429	      2.55124778	     -0.12320384	      0.81531273	      0.38271104	     35.73460900	     -9.64651139	      4.17402401	     64.26135363	      1.12157220	     15.84065798	     11.28107406	      0.15815168	     23.62579338	      0.41234788	     -7.21222331	    -13.43907391	     -6.09711409	      1.90027464	    -17.06220298	      0.00000000	      8.68953277	    -13.29830610	      0.00000000
      1.88000000	    -10.06706640	      8.93469250	      2.79891867	     -0.11571878	      0.81588091	      0.38321112	     36.64770666	     -9.65763080	      4.25299429	     63.33589158	      1.10541984	     15.17582082	     11.25755202	      0.27495766	     23.50725901	      0.41027907	     -7.35070579	    -13.54780485	     -6.33503514	      2.03964963	    -17.12453927	      0.00000000	      8.69640173	    -13.27419615	      0.00000000
